<?xml version="1.0" encoding="UTF-8"?>
<svg width="24px" height="24px" viewBox="0 0 24 24" version="1.1" xmlns="http://www.w3.org/2000/svg" xmlns:xlink="http://www.w3.org/1999/xlink">
    <title>编组</title>
    <g id="用户端-新版设计" stroke="none" stroke-width="1" fill="none" fill-rule="evenodd">
        <g id="订单详情_待支付首付" transform="translate(-652.000000, -435.000000)" fill="#141C30">
            <g id="编组" transform="translate(652.000000, 435.000000)">
                <path d="M3.35768759,18.2483036 L4.08767299,18.2483036 L4.08767299,19.8540263 L3.35768759,19.8540263 C2.48177518,19.8540263 1.60586277,19.5621723 1.02197956,18.8321869 C0.437921168,18.2483036 -3.50364961e-05,17.3723912 -3.50364961e-05,16.4964788 L-3.50364961e-05,3.3577927 C-3.50364961e-05,1.60596788 1.45993577,7.00729928e-05 3.35768759,7.00729928e-05 L16.6424759,7.00729928e-05 C18.3943007,7.00729928e-05 20.0000234,1.46004088 20.0000234,3.3577927 L20.0000234,4.23370511 L18.3943007,4.23370511 L18.3943007,3.3577927 C18.3943007,2.9198365 18.2481985,2.48188029 17.9563445,2.18985109 C17.6643153,1.89799708 17.2263591,1.75189489 16.7884029,1.75189489 L3.35768759,1.75189489 C2.48177518,1.75189489 1.60586277,2.48188029 1.60586277,3.50371971 L1.60586277,16.6424058 C1.60586277,17.3723912 2.33584818,18.2483036 3.35768759,18.2483036 L3.35768759,18.2483036 Z M22.3359066,20.5840117 L22.3359066,7.44532555 C22.3359066,6.42348613 21.6059212,5.69350073 20.5840818,5.69350073 L7.44522044,5.69350073 C6.42338102,5.69350073 5.69339562,6.42348613 5.69339562,7.44532555 L5.69339562,20.5840117 C5.69339562,21.6058511 6.42338102,22.3358365 7.44522044,22.3358365 L20.5840818,22.3358365 C21.4599942,22.3358365 22.3359066,21.6058511 22.3359066,20.5840117 L22.3359066,20.5840117 Z M20.5840818,4.0877781 C22.4818336,4.0877781 23.9416292,5.54757372 23.9416292,7.44532555 L23.9416292,20.5840117 C23.9416292,22.4817635 22.4818336,23.9417343 20.5840818,23.9417343 L7.44522044,23.9417343 C5.54746861,23.9417343 4.08767299,22.4817635 4.08767299,20.5840117 L4.08767299,7.44532555 C4.08767299,5.54757372 5.54746861,4.0877781 7.44522044,4.0877781 L20.5840818,4.0877781 Z" id="Fill-1"></path>
            </g>
        </g>
    </g>
</svg>