<svg width="56" height="56" viewBox="0 0 56 56" xmlns="http://www.w3.org/2000/svg"><path d="M54.253 26.351H1.55a1.55 1.55 0 0 0 0 3.101h52.703a1.55 1.55 0 0 0 0-3.1zm0 7.751a1.55 1.55 0 0 0-1.55 1.548v17.052h-17.05a1.55 1.55 0 1 0-.002 3.101h18.602a1.55 1.55 0 0 0 1.55-1.548V35.653a1.55 1.55 0 0 0-1.547-1.551h-.003zm0-34.102h-18.6a1.55 1.55 0 1 0-.002 3.1h17.052v17.051a1.55 1.55 0 0 0 3.1.001V1.55C55.805.695 55.112 0 54.257 0h-.003zM20.151 52.703H3.101v-17.05A1.55 1.55 0 0 0 0 35.651v18.601c0 .856.693 1.55 1.55 1.55h18.601a1.55 1.55 0 0 0 0-3.1zM1.551 21.7a1.55 1.55 0 0 0 1.55-1.549V3.1h17.05a1.55 1.55 0 0 0 .001-3.1H1.55A1.55 1.55 0 0 0 0 1.549V20.15c0 .856.693 1.55 1.55 1.55z" fill="#000" fill-rule="evenodd"/></svg>