<svg width="56" height="56" viewBox="0 0 56 56" xmlns="http://www.w3.org/2000/svg"><g fill="#000" fill-rule="evenodd"><path d="M9.758 42.81H46c.836 0 1.394.557 1.394 1.394 0 .836-.837 1.394-1.394 1.394H9.758c-.837 0-1.394-.558-1.394-1.394 0-.837.557-1.394 1.394-1.394m35.406-30.667c1.116 0 2.23.836 2.23 1.951v18.68c0 1.393 0 2.787-2.23 2.787s-2.23-1.673-2.23-2.788v-18.4c0-1.115.836-2.23 2.23-2.23m-26.206 0c1.672 0 2.788 1.115 2.788 2.788v18.121c0 1.672-1.116 2.788-2.788 2.788-1.673 0-2.788-1.116-2.788-2.788V14.931c0-1.673 1.394-2.788 2.788-2.788m17.285 0c.558 0 1.115.557 1.115 1.115v21.466c0 .558-.557 1.116-1.115 1.116-.557 0-1.115-.558-1.115-1.116V13.258c0-.558.558-1.115 1.115-1.115m-7.806 0c.558 0 1.115.557 1.115 1.115v21.466c0 .558-.557 1.116-1.115 1.116-.558 0-1.115-.558-1.115-1.116V13.258c0-.558.557-1.115 1.115-1.115m-17.843 1.115v21.466c0 .558-.558 1.116-1.115 1.116-.558 0-1.115-.558-1.115-1.116V13.258c0-.558.557-1.115 1.115-1.115.557 0 1.115.557 1.115 1.115"/><path d="M5.576 2.592h44.607c3.066 0 5.575 2.23 5.575 5.018v40.146c0 2.788-2.509 5.018-5.575 5.018H5.576C2.509 52.774 0 50.544 0 47.756V7.61c0-2.788 2.51-5.018 5.576-5.018zm.8 2.966c-1.882 0-3.226 1.344-3.226 2.957v38.296c0 1.613 1.344 2.957 3.226 2.957h43.007c1.882 0 3.225-1.344 3.225-2.957V8.515c0-1.613-1.343-2.957-3.225-2.957H6.376z"/></g></svg>