<svg width="40" height="40" viewBox="0 0 40 40" xmlns="http://www.w3.org/2000/svg" xmlns:xlink="http://www.w3.org/1999/xlink"><defs><path id="a" d="M0 0h40v40H0z"/><path id="c" d="M0 40h40V0H0z"/></defs><g fill="none" fill-rule="evenodd"><mask id="b" fill="#fff"><use xlink:href="#a"/></mask><path d="M20 0c11.046 0 20 8.954 20 20s-8.954 20-20 20S0 31.046 0 20 8.954 0 20 0" fill="#F8C705" mask="url(#b)"/><path d="M11.715 16.392h16.57v11.836c0 .56-.453 1.013-1.012 1.013H12.727c-.56 0-1.012-.454-1.012-1.013V16.392z" fill="#FFF"/><path d="M28.333 13.18H11.61l-1.737 4.53c0 1.356 1.129 2.481 2.518 2.481 1.389 0 2.546-1.096 2.546-2.48 0 1.355 1.128 2.48 2.517 2.48 1.388 0 2.546-1.096 2.546-2.48 0 1.355 1.128 2.48 2.517 2.48s2.517-1.096 2.517-2.48c0 1.355 1.129 2.48 2.546 2.48 1.39 0 2.547-1.096 2.547-2.48l-1.794-4.53z" fill="#FFF"/><path d="M25.034 17.33c.21 0 .38.17.38.38 0 1.159.972 2.101 2.167 2.101 1.17 0 2.127-.905 2.164-2.031l-1.67-4.22H11.871l-1.617 4.218c.037 1.127.981 2.033 2.137 2.033 1.194 0 2.166-.942 2.166-2.1a.38.38 0 1 1 .76 0c0 1.158.958 2.1 2.137 2.1 1.194 0 2.166-.942 2.166-2.1a.38.38 0 1 1 .76 0c0 1.158.958 2.1 2.137 2.1 1.178 0 2.137-.942 2.137-2.1 0-.21.17-.38.38-.38m2.547 3.24a2.94 2.94 0 0 1-2.545-1.45 2.906 2.906 0 0 1-2.52 1.45 2.905 2.905 0 0 1-2.518-1.45 2.94 2.94 0 0 1-2.544 1.45 2.905 2.905 0 0 1-2.52-1.45 2.938 2.938 0 0 1-2.543 1.45c-1.598 0-2.897-1.284-2.897-2.861 0-.047.008-.093.025-.136l1.736-4.53a.38.38 0 0 1 .355-.243h16.723a.38.38 0 0 1 .353.24l1.794 4.53a.383.383 0 0 1 .026.14c0 1.577-1.312 2.86-2.925 2.86" fill="#F8C705"/><path fill="#000" d="M26.013 27.006l.058.046z"/><mask id="d" fill="#fff"><use xlink:href="#c"/></mask><path fill="#FFF" mask="url(#d)" d="M11.715 12.722h16.57v-1.836h-16.57z"/></g></svg>