<svg width="28" height="28" viewBox="0 0 28 28" xmlns="http://www.w3.org/2000/svg" xmlns:xlink="http://www.w3.org/1999/xlink"><defs><path id="a" d="M0 0h28v28H0z"/></defs><g fill="none" fill-rule="evenodd"><mask id="b" fill="#fff"><use xlink:href="#a"/></mask><path d="M14.966 21.722a.965.965 0 1 1-1.932 0v-9.65a.964.964 0 1 1 1.932 0v9.65zM14 6.266a1.448 1.448 0 1 1 0 2.895 1.448 1.448 0 0 1 0-2.895zM14 0C6.268 0 0 6.268 0 14s6.268 14 14 14 14-6.268 14-14S21.732 0 14 0z" fill="#E13F3F" mask="url(#b)"/></g></svg>