<svg width="100" height="100" viewBox="0 0 100 100" xmlns="http://www.w3.org/2000/svg" xmlns:xlink="http://www.w3.org/1999/xlink"><defs><rect id="a" width="100" height="100" rx="10"/></defs><g fill="none" fill-rule="evenodd"><mask id="b" fill="#fff"><use xlink:href="#a"/></mask><use fill="#F7F7F7" xlink:href="#a"/><g mask="url(#b)" fill="#E3E3E3"><path d="M75 61.848v10.21c0 1.188-1.022 1.9-2.044 1.9H61.508v-4.221h9.193v-7.89H75zm-45.7 0v7.929h9.192v4.182H27.044c-1.022 0-2.044-.713-2.044-1.9V61.848h4.3zm22.874-20.033v16.87h-4.348v-16.87h4.348zm11.956 0v16.87h-4.347v-16.87h4.347zm-19.565 0v16.87h-1.087v-16.87h1.087zm11.957 0v16.87h-1.087v-16.87h1.087zm-16.305 0v16.87H35.87v-16.87h4.347zM72.956 26c1.022 0 2.044.712 2.044 1.9v10.21h-4.3v-7.888h-9.192V26h11.448zm-34.464 0v4.182h-9.193v7.929H25V27.9c0-1.188 1.022-1.9 2.044-1.9h11.448z"/></g></g></svg>