<svg width="203" height="68" viewBox="0 0 203 68" xmlns="http://www.w3.org/2000/svg" xmlns:xlink="http://www.w3.org/1999/xlink"><defs><path id="a" d="M0 68h202.612V0H0z"/></defs><g fill="none" fill-rule="evenodd"><path d="M55.593 68H12.408C5.555 68 0 62.445 0 55.592V12.407C0 5.555 5.555 0 12.408 0h43.185C62.445 0 68 5.555 68 12.407v43.186C68 62.445 62.445 68 55.593 68" fill="#F0FF5F"/><path d="M53.023 42.653c1.996-2.252 3.942-4.88 5.836-7.888h-10.64C43.46 40.908 38.691 43.96 34 43.852c-2.746-.064-5.395-1.237-7.78-2.904L34 28.045l1.642 2.686c2.368 3.356 5.109 1.616 6.318.804a35.964 35.964 0 0 0 3.006-2.27L34 11.101 5.551 58.286h10.216l5.928-9.832c3.461 2.327 7.525 4.034 12.066 4.148.166.004.331.007.497.007 4.188 0 8.243-1.34 12.142-3.999l5.833 9.676H62.45l-9.426-15.633zM116.12 12.894v6.404c0 .836-.667 1.513-1.49 1.513h-1.41V8.327h-4.927V20.81h-1.41c-.823 0-1.49-.677-1.49-1.513V8.327h-5.475v12.47c0 3.077 2.457 5.57 5.488 5.57h10.7c3.031 0 5.488-2.493 5.488-5.57v-7.846l1.916-4.624h-5.474l-1.916 4.567z" fill="#000"/><mask id="b" fill="#fff"><use xlink:href="#a"/></mask><path fill="#000" mask="url(#b)" d="M99.918 34.694h20.817v-5.551H99.918zM99.431 43.019v9.074a1.94 1.94 0 0 1-1.948 1.932h-.34v5.648H99.8c2.873 0 5.202-2.31 5.202-5.16v-10.01c0-.833.68-1.508 1.52-1.508h3.11v-5.526h-4.606c-3.09 0-5.595 2.485-5.595 5.55M119.834 52.093V43.02c0-3.065-2.505-5.55-5.595-5.55h-4.606v5.526h3.126a1.5 1.5 0 0 1 1.505 1.493v10.026c0 2.85 2.328 5.16 5.201 5.16h2.657v-5.648h-.34a1.94 1.94 0 0 1-1.948-1.933M157.062 20.816h5.548v-4.33h25.792v4.33h5.549v-4.33h8.661v-5.35h-8.661v-2.81h-5.549v2.81H162.61v-2.81h-5.571l.023 2.81h-8.572v5.35h8.572zM155.754 31.002c-.62.934-1.48 1.7-2.501 2.23l-4.763 2.465v6.298l6.029-3.15v20.828h5.802V34.781l.167-.128 6.043-9.661-6.778-.012-4 6.022zM184.571 36.117V24.98h-5.55v13.877z"/><path d="M187.585 54.188c-1.965 0-3.559-1.53-3.559-3.418v-6.439l9.966-4.538c3.498-1.593 6.064-4.717 6.864-8.355l1.107-5.07h-5.83l-.942 4.285c-.388 1.766-1.613 3.257-3.31 4.03l-25.35 11.544v6.07l11.784-5.365v4.405c0 4.604 3.886 8.336 8.68 8.336h15.617v-5.485h-15.027zM89.34 14.071a17.973 17.973 0 0 1-3.3 5.279v8.405c4.031-2.57 7.376-6.439 9.34-11.286a24.156 24.156 0 0 0 1.763-8.142H90.63a17.87 17.87 0 0 1-1.292 5.744M90.63 24.98a16.042 16.042 0 0 1-1.29 5.416 16.835 16.835 0 0 1-3.3 4.978v7.925a23.494 23.494 0 0 0 4.398-3.417v19.791h5.919V29.896c.46-1.638.718-3.286.786-4.916H90.63zM136.643 50.289a22.182 22.182 0 0 0 3.669-12.247V17.374h2.584v-5.55h-9.161c.232-1.169.373-2.337.42-3.497h-6.244c-.1 1.808-.502 3.649-1.239 5.446a17.012 17.012 0 0 1-3.162 5.004v7.969a22.85 22.85 0 0 0 8.357-9.372h2.77v21.017c0 2.589-.588 5.068-1.664 7.297a16.906 16.906 0 0 1-2.112-8.154V22.762a23.007 23.007 0 0 1-5.674 5.523v8.766c0 4.857 1.609 9.504 4.42 13.322a17.463 17.463 0 0 1-5.53 3.663v5.637l1.727-.674a23.22 23.22 0 0 0 7.466-4.705 23.132 23.132 0 0 0 5.247 3.356l4.422 2.023v-5.63l-1.995-.928a17.502 17.502 0 0 1-4.3-2.826" fill="#000" mask="url(#b)"/></g></svg>