<svg width="201" height="53" viewBox="0 0 201 53" xmlns="http://www.w3.org/2000/svg"><g fill="#000" fill-rule="evenodd"><path d="M54.232 35.44c2.28-2.53 4.503-5.482 6.666-8.86H48.743c-5.436 6.9-10.883 10.329-16.242 10.207-3.137-.072-6.163-1.39-8.888-3.262L32.5 19.032l1.876 3.016c2.705 3.77 5.836 1.816 7.217.903 1.897-1.253 3.434-2.55 3.434-2.55L32.5 0 0 53h11.67l6.772-11.043c3.955 2.613 8.597 4.53 13.785 4.66.19.004.379.006.567.006 4.785 0 9.418-1.505 13.871-4.491L53.33 53H65L54.232 35.44zM111.482 4.557v6.39c0 .833-.679 1.51-1.517 1.51h-1.433V0h-5.012v12.456h-1.435a1.513 1.513 0 0 1-1.516-1.51V0H95v12.442c0 3.07 2.5 5.558 5.583 5.558h10.885c3.084 0 5.583-2.488 5.583-5.558V4.614L119 0h-5.569l-1.949 4.557zM94 26h22v-5H94zM95.382 36.498v8.991c0 1.057-.908 1.915-2.028 1.915H93V53h2.766c2.99 0 5.414-2.29 5.414-5.112v-9.919c0-.825.709-1.495 1.583-1.495H106V31h-4.795c-3.216 0-5.823 2.462-5.823 5.498"/><path d="M115.618 45.49v-8.991c0-3.037-2.607-5.499-5.823-5.499H105v5.475h3.254c.865 0 1.566.662 1.566 1.479v9.934c0 2.823 2.424 5.112 5.414 5.112H118v-5.596h-.354c-1.12 0-2.028-.857-2.028-1.915M153.87 13h5.74V8.493h26.687V13h5.741V8.493H201V2.924h-8.962V0h-5.74v2.924H159.61V0h-5.764l.023 2.924H145v5.57h8.87zM152.248 23.25a6.761 6.761 0 0 1-2.496 2.312L145 28.12v6.536l6.015-3.268V53h5.79V27.17l.166-.133L163 17.012 156.238 17l-3.99 6.25zM182 28.236V17h-5v14z"/><path d="M186.007 47.236c-1.961 0-3.551-1.608-3.551-3.592v-6.767l9.943-4.769c3.49-1.674 6.051-4.956 6.849-8.78L200.353 18h-5.817l-.94 4.504a6.065 6.065 0 0 1-3.304 4.235L165 38.869v6.38l11.758-5.639v4.63c0 4.838 3.877 8.76 8.66 8.76H201v-5.764h-14.993zM84.268 5.618A17.545 17.545 0 0 1 81 10.78V19a23.617 23.617 0 0 0 9.254-11.037A23.363 23.363 0 0 0 92 0h-6.452a17.284 17.284 0 0 1-1.28 5.618M85.548 17A17.554 17.554 0 0 1 81 27.785v8.224a23.455 23.455 0 0 0 4.357-3.546V53h5.864V22.101c.456-1.699.712-3.409.779-5.101h-6.452zM132.52 42.496a22.204 22.204 0 0 0 3.776-12.403V9.163h2.66V3.54h-9.431c.239-1.183.385-2.366.432-3.541h-6.427a16.77 16.77 0 0 1-1.275 5.515A17.193 17.193 0 0 1 119 10.584v8.07a23.272 23.272 0 0 0 8.602-9.492h2.853v21.285c0 2.622-.606 5.132-1.714 7.39a16.904 16.904 0 0 1-2.174-8.258v-14.96a23.515 23.515 0 0 1-5.841 5.593v8.878c0 4.918 1.656 9.625 4.55 13.491a18.005 18.005 0 0 1-5.692 3.71V52l1.777-.683a23.965 23.965 0 0 0 7.686-4.764 23.873 23.873 0 0 0 5.4 3.397L139 52v-5.703l-2.054-.939a18.045 18.045 0 0 1-4.427-2.862"/></g></svg>