<svg width="24" height="24" viewBox="0 0 24 24" xmlns="http://www.w3.org/2000/svg" xmlns:xlink="http://www.w3.org/1999/xlink"><defs><path id="a" d="M0 0h24v24H0z"/></defs><g fill="none" fill-rule="evenodd"><mask id="b" fill="#fff"><use xlink:href="#a"/></mask><path d="M15.521 5.43c-.055.632-.368 1.398-.771 1.777-.468.466-1.233.509-1.644.509-1.21 0-1.415-.487-1.363-1.102.048-.55.305-1.377.775-1.82.536-.488 1.316-.508 1.808-.508 1.068 0 1.255.464 1.195 1.143m-1.2 4.334c-.022.255-.08.446-.62 2.16-.376 1.251-1.528 5.042-1.615 6.036-.026.295.003.653.703.653.102 0 .414-.022.601-.063.062-.02.4-.127.482-.127.123 0 .13.15.123.23-.027.318-.142.466-.814.639-.924.236-1.843.422-2.767.422-.45 0-1.745 0-1.615-1.483.11-1.265 2.063-6.941 2.148-7.915.06-.676-.574-.696-.901-.696l-.56.04c-.143 0-.222-.04-.21-.188.04-.444.288-.468.432-.492.521-.063 2.482-.21 3.077-.21.574 0 1.622.02 1.536.994M12 0C5.383 0 0 5.385 0 12s5.383 12 12 12c6.615 0 12-5.385 12-12S18.615 0 12 0" fill="#FF6312" mask="url(#b)"/></g></svg>