<svg width="100" height="100" viewBox="0 0 100 100" xmlns="http://www.w3.org/2000/svg" xmlns:xlink="http://www.w3.org/1999/xlink"><defs><rect id="a" width="100" height="100" rx="10"/></defs><g fill="none" fill-rule="evenodd"><mask id="b" fill="#fff"><use xlink:href="#a"/></mask><use fill="#F7F7F7" xlink:href="#a"/><path d="M42.125 32.242h15V28.75h-15v3.492zM59 41.875a1.875 1.875 0 0 1 .18 3.741l-.18.009H39.625a1.875 1.875 0 0 1-.18-3.741l.18-.009H59zm-6.875 8.75a1.875 1.875 0 0 1 .18 3.741l-.18.009h-12.5a1.875 1.875 0 0 1-.18-3.741l.18-.009h12.5zm0 8.75a1.875 1.875 0 0 1 .18 3.741l-.18.009h-12.5a1.875 1.875 0 0 1-.18-3.741l.18-.01h12.5zm5-23.125h-15c-2.07 0-3.75-1.388-3.75-3.459h-4.916v37.86h32.24V32.79h-4.824c0 2.07-1.68 3.459-3.75 3.459zm0-11.25c2.07 0 3.75 1.38 3.75 3.451h7.5c.966 0 1.774.734 1.866 1.695l.009.18v42.799c0 .966-.734 1.773-1.695 1.866l-.18.009h-37.5a1.875 1.875 0 0 1-1.866-1.695l-.009-.18V30.326c0-.966.734-1.773 1.695-1.866l.18-.009h7.5c0-2.07 1.68-3.451 3.75-3.451h15z" fill="#E3E3E3" mask="url(#b)"/></g></svg>