<svg width="100" height="100" viewBox="0 0 100 100" xmlns="http://www.w3.org/2000/svg" xmlns:xlink="http://www.w3.org/1999/xlink"><defs><rect id="a" width="100" height="100" rx="10"/></defs><g fill="none" fill-rule="evenodd"><mask id="b" fill="#fff"><use xlink:href="#a"/></mask><use fill="#F7F7F7" xlink:href="#a"/><path d="M52.174 47.826H75V25H52.174v22.826zm3.26-3.26h15.218V29.347H55.435v15.217zM25 47.825h22.826V25H25v22.826zm4.348-3.26h15.217V29.347H29.348v15.217zm30.435-4.349h7.608V32.61h-7.608v7.608zm-27.174 0h7.608V32.61H32.61v7.608zM25 75h22.826V52.174H25V75zm4.348-4.348h15.217V55.435H29.348v15.217zm3.26-3.26h7.61v-7.61h-7.61v7.61zM70.653 75H75v-7.609h-4.348V75zm-3.26-7.609V75h-4.349v-7.609h4.348zm-3.805-15.217v7.609h7.608v-7.61H75v11.414H59.783v-3.804h-3.804V75h-3.805V52.174h11.413z" fill="#E3E3E3" mask="url(#b)"/></g></svg>